<svg width="113" height="24" viewBox="0 0 113 24" fill="none" xmlns="http://www.w3.org/2000/svg">
<path d="M16.1777 6.92871C16.1777 7.88477 15.9951 8.78711 15.6299 9.63574C15.2646 10.4736 14.7651 11.2095 14.1313 11.8433C13.5083 12.4663 12.7778 12.9604 11.9399 13.3257C11.1021 13.6909 10.2051 13.8735 9.24902 13.8735H6.92871C6.60645 13.8735 6.30566 13.9326 6.02637 14.0508C5.74707 14.1689 5.5 14.3354 5.28516 14.5503C5.08105 14.7544 4.91992 14.9961 4.80176 15.2754C4.68359 15.5547 4.62451 15.8555 4.62451 16.1777V18.4819H15.5493V23.1064H0V16.1777C0 15.2217 0.182617 14.3247 0.547852 13.4868C0.913086 12.6382 1.40723 11.9023 2.03027 11.2793C2.66406 10.6455 3.3999 10.1514 4.23779 9.79688C5.07568 9.43164 5.97266 9.24902 6.92871 9.24902H9.24902C9.57129 9.24902 9.87207 9.18994 10.1514 9.07178C10.4307 8.95361 10.6724 8.79248 10.8765 8.58838C11.0913 8.37354 11.2578 8.12646 11.376 7.84717C11.4941 7.55713 11.5532 7.25098 11.5532 6.92871C11.5532 6.60645 11.4941 6.30566 11.376 6.02637C11.2578 5.74707 11.0913 5.50537 10.8765 5.30127C10.6724 5.08643 10.4307 4.91992 10.1514 4.80176C9.87207 4.68359 9.57129 4.62451 9.24902 4.62451H0.999023V0H9.24902C10.2051 0 11.1021 0.182617 11.9399 0.547852C12.7778 0.913086 13.5083 1.4126 14.1313 2.04639C14.7651 2.66943 15.2646 3.3999 15.6299 4.23779C15.9951 5.07568 16.1777 5.97266 16.1777 6.92871Z" fill="url(#paint0_linear_4_28)"/>
<path d="M45.2607 11.8755C45.2607 9.30811 44.8311 7.40137 43.9717 6.15527C43.123 4.90918 41.936 4.28613 40.4106 4.28613C38.896 4.28613 37.7197 4.90381 36.8818 6.13916C36.0439 7.37451 35.625 9.28662 35.625 11.8755C35.625 14.4429 36.0439 16.3496 36.8818 17.5957C37.7197 18.8418 38.896 19.4648 40.4106 19.4648C41.1733 19.4648 41.8555 19.3145 42.457 19.0137C43.0586 18.7021 43.5635 18.2349 43.9717 17.6118C44.3906 16.9888 44.7075 16.2046 44.9224 15.2593C45.1479 14.3032 45.2607 13.1753 45.2607 11.8755ZM49.6597 11.8755C49.6597 14.0669 49.418 15.9199 48.9346 17.4346C48.4512 18.9492 47.7905 20.1738 46.9526 21.1084C46.1147 22.043 45.1318 22.7197 44.0039 23.1387C42.8867 23.5469 41.689 23.751 40.4106 23.751C39.1323 23.751 37.9292 23.5415 36.8013 23.1226C35.6841 22.6929 34.7065 22.0107 33.8687 21.0762C33.0415 20.1309 32.3862 18.9062 31.9028 17.4023C31.4194 15.8877 31.1777 14.0454 31.1777 11.8755C31.1777 9.68408 31.4194 7.83643 31.9028 6.33252C32.3862 4.81787 33.0415 3.59326 33.8687 2.65869C34.7065 1.72412 35.6841 1.04736 36.8013 0.628418C37.9292 0.209473 39.1323 0 40.4106 0C41.689 0 42.8867 0.214844 44.0039 0.644531C45.1318 1.06348 46.1147 1.74561 46.9526 2.69092C47.7905 3.63623 48.4512 4.86084 48.9346 6.36475C49.418 7.86865 49.6597 9.70557 49.6597 11.8755Z" fill="url(#paint1_linear_4_28)"/>
<path d="M80.8374 6.92871C80.8374 7.88477 80.6548 8.78711 80.2896 9.63574C79.9243 10.4736 79.4248 11.2095 78.791 11.8433C78.168 12.4663 77.4375 12.9604 76.5996 13.3257C75.7617 13.6909 74.8647 13.8735 73.9087 13.8735H71.5884C71.2661 13.8735 70.9653 13.9326 70.686 14.0508C70.4067 14.1689 70.1597 14.3354 69.9448 14.5503C69.7407 14.7544 69.5796 14.9961 69.4614 15.2754C69.3433 15.5547 69.2842 15.8555 69.2842 16.1777V18.4819H80.209V23.1064H64.6597V16.1777C64.6597 15.2217 64.8423 14.3247 65.2075 13.4868C65.5728 12.6382 66.0669 11.9023 66.6899 11.2793C67.3237 10.6455 68.0596 10.1514 68.8975 9.79688C69.7354 9.43164 70.6323 9.24902 71.5884 9.24902H73.9087C74.231 9.24902 74.5317 9.18994 74.811 9.07178C75.0903 8.95361 75.332 8.79248 75.5361 8.58838C75.751 8.37354 75.9175 8.12646 76.0356 7.84717C76.1538 7.55713 76.2129 7.25098 76.2129 6.92871C76.2129 6.60645 76.1538 6.30566 76.0356 6.02637C75.9175 5.74707 75.751 5.50537 75.5361 5.30127C75.332 5.08643 75.0903 4.91992 74.811 4.80176C74.5317 4.68359 74.231 4.62451 73.9087 4.62451H65.6587V0H73.9087C74.8647 0 75.7617 0.182617 76.5996 0.547852C77.4375 0.913086 78.168 1.4126 78.791 2.04639C79.4248 2.66943 79.9243 3.3999 80.2896 4.23779C80.6548 5.07568 80.8374 5.97266 80.8374 6.92871Z" fill="url(#paint2_linear_4_28)"/>
<path d="M112.015 6.92871C112.015 7.88477 111.833 8.78711 111.467 9.63574C111.102 10.4736 110.603 11.2095 109.969 11.8433C109.346 12.4663 108.615 12.9604 107.777 13.3257C106.939 13.6909 106.042 13.8735 105.086 13.8735H102.766C102.444 13.8735 102.143 13.9326 101.864 14.0508C101.584 14.1689 101.337 14.3354 101.123 14.5503C100.918 14.7544 100.757 14.9961 100.639 15.2754C100.521 15.5547 100.462 15.8555 100.462 16.1777V18.4819H111.387V23.1064H95.8374V16.1777C95.8374 15.2217 96.02 14.3247 96.3853 13.4868C96.7505 12.6382 97.2446 11.9023 97.8677 11.2793C98.5015 10.6455 99.2373 10.1514 100.075 9.79688C100.913 9.43164 101.81 9.24902 102.766 9.24902H105.086C105.409 9.24902 105.709 9.18994 105.989 9.07178C106.268 8.95361 106.51 8.79248 106.714 8.58838C106.929 8.37354 107.095 8.12646 107.213 7.84717C107.332 7.55713 107.391 7.25098 107.391 6.92871C107.391 6.60645 107.332 6.30566 107.213 6.02637C107.095 5.74707 106.929 5.50537 106.714 5.30127C106.51 5.08643 106.268 4.91992 105.989 4.80176C105.709 4.68359 105.409 4.62451 105.086 4.62451H96.8364V0H105.086C106.042 0 106.939 0.182617 107.777 0.547852C108.615 0.913086 109.346 1.4126 109.969 2.04639C110.603 2.66943 111.102 3.3999 111.467 4.23779C111.833 5.07568 112.015 5.97266 112.015 6.92871Z" fill="url(#paint3_linear_4_28)"/>
<defs>
<linearGradient id="paint0_linear_4_28" x1="-0.0308101" y1="11.144" x2="16.2098" y2="11.144" gradientUnits="userSpaceOnUse">
<stop stop-color="#FBAF78"/>
<stop offset="1" stop-color="#F8AE78" stop-opacity="0.16"/>
</linearGradient>
<linearGradient id="paint1_linear_4_28" x1="34.5" y1="1.50001" x2="47" y2="22.5" gradientUnits="userSpaceOnUse">
<stop stop-color="#FBAF78"/>
<stop offset="1" stop-color="#F8AE78" stop-opacity="0.16"/>
</linearGradient>
<linearGradient id="paint2_linear_4_28" x1="64.6821" y1="23.0156" x2="72.6821" y2="-2.48438" gradientUnits="userSpaceOnUse">
<stop stop-color="#FBAF78"/>
<stop offset="1" stop-color="#F8AE78" stop-opacity="0.08"/>
</linearGradient>
<linearGradient id="paint3_linear_4_28" x1="95.8066" y1="11.144" x2="112.047" y2="11.144" gradientUnits="userSpaceOnUse">
<stop stop-color="#FBAF78"/>
<stop offset="1" stop-color="#F8AE78" stop-opacity="0.16"/>
</linearGradient>
</defs>
</svg>
