<svg width="160" height="200" viewBox="0 0 160 200" fill="none" xmlns="http://www.w3.org/2000/svg">
<path d="M40.0279 40.0279V120.084H80.0558C85.5416 120.084 90.702 119.061 95.537 117.015C100.372 114.877 104.603 111.994 108.229 108.368C111.855 104.742 114.691 100.511 116.736 95.6764C118.875 90.7485 119.944 85.5416 119.944 80.0558C119.944 74.57 118.875 69.4096 116.736 64.5746C114.691 59.6467 111.855 55.3696 108.229 51.7434C104.603 48.1172 100.372 45.2813 95.537 43.2357C90.702 41.0972 85.5416 40.0279 80.0558 40.0279H40.0279ZM40.0279 200H0V0H80.0558C87.4012 0 94.4677 0.97629 101.255 2.92887C108.043 4.78847 114.365 7.48489 120.223 11.0181C126.174 14.4584 131.567 18.6425 136.402 23.5704C141.33 28.4054 145.514 33.7982 148.954 39.749C152.487 45.6997 155.184 52.0688 157.043 58.8563C158.996 65.6439 159.972 72.7104 159.972 80.0558C159.972 86.9363 159.089 93.6309 157.322 100.139C155.649 106.648 153.185 112.831 149.93 118.689C146.769 124.547 142.864 129.94 138.215 134.868C133.566 139.795 128.359 144.073 122.594 147.699L144.77 200H102.232L84.7978 159.693L40.0279 159.972V200Z" fill="url(#paint0_linear_4_88)"/>
<defs>
<linearGradient id="paint0_linear_4_88" x1="-0.304663" y1="96.4575" x2="160.289" y2="96.4575" gradientUnits="userSpaceOnUse">
<stop stop-color="#FBAF78"/>
<stop offset="1" stop-color="#F8AE78" stop-opacity="0.16"/>
</linearGradient>
</defs>
</svg>
