<svg width="160" height="200" viewBox="0 0 160 200" fill="none" xmlns="http://www.w3.org/2000/svg">
<path d="M0 59.9721C0 51.6969 1.58066 43.9331 4.74198 36.6806C7.9033 29.4282 12.1804 23.1055 17.5732 17.7127C23.059 12.2269 29.4282 7.9033 36.6806 4.74198C43.9331 1.58066 51.6969 0 59.9721 0H151.743V40.0279H59.9721C57.1827 40.0279 54.5793 40.5393 52.1618 41.5621C49.7443 42.5848 47.6058 44.026 45.7462 45.8856C43.9795 47.6523 42.5848 49.7443 41.5621 52.1618C40.5393 54.5793 40.0279 57.1827 40.0279 59.9721C40.0279 62.7615 40.5393 65.4114 41.5621 67.9219C42.5848 70.3394 43.9795 72.4779 45.7462 74.3375C47.6058 76.1041 49.7443 77.4988 52.1618 78.5216C54.5793 79.5444 57.1827 80.0558 59.9721 80.0558H100C108.275 80.0558 116.039 81.6365 123.291 84.7978C130.637 87.8661 137.006 92.1432 142.399 97.629C147.885 103.022 152.162 109.391 155.23 116.736C158.391 123.989 159.972 131.753 159.972 140.028C159.972 148.303 158.391 156.067 155.23 163.319C152.162 170.572 147.885 176.941 142.399 182.427C137.006 187.82 130.637 192.097 123.291 195.258C116.039 198.419 108.275 200 100 200H11.1576V159.972H100C102.789 159.972 105.393 159.461 107.81 158.438C110.228 157.415 112.32 156.02 114.086 154.254C115.946 152.394 117.387 150.256 118.41 147.838C119.433 145.421 119.944 142.817 119.944 140.028C119.944 137.238 119.433 134.635 118.41 132.218C117.387 129.8 115.946 127.708 114.086 125.941C112.32 124.082 110.228 122.641 107.81 121.618C105.393 120.595 102.789 120.084 100 120.084H59.9721C51.6969 120.084 43.9331 118.503 36.6806 115.342C29.4282 112.18 23.059 107.903 17.5732 102.51C12.1804 97.0246 7.9033 90.6555 4.74198 83.4031C1.58066 76.0576 0 68.2473 0 59.9721Z" fill="url(#paint0_linear_4_86)"/>
<defs>
<linearGradient id="paint0_linear_4_86" x1="91.9388" y1="199.833" x2="91.9387" y2="-0.111635" gradientUnits="userSpaceOnUse">
<stop stop-color="#FBAF78"/>
<stop offset="1" stop-color="#F8AE78" stop-opacity="0.16"/>
</linearGradient>
</defs>
</svg>
