<svg width="595" height="10" viewBox="0 0 595 10" fill="none" xmlns="http://www.w3.org/2000/svg">
<path d="M5.9624 5.62695V3.94531C5.9624 3.71484 5.91748 3.49805 5.82764 3.29492C5.7417 3.08789 5.62256 2.9082 5.47021 2.75586C5.31787 2.60352 5.13818 2.48438 4.93115 2.39844C4.72803 2.30859 4.51123 2.26367 4.28076 2.26367C4.05029 2.26367 3.83154 2.30859 3.62451 2.39844C3.42139 2.48438 3.24365 2.60352 3.09131 2.75586C2.93896 2.9082 2.81787 3.08789 2.72803 3.29492C2.64209 3.49805 2.59912 3.71484 2.59912 3.94531V5.62695H5.9624ZM7.64404 8.98438H5.9624V7.30273H2.59912V8.98438H0.92334V3.94531C0.92334 3.48047 1.01123 3.04492 1.18701 2.63867C1.36279 2.22852 1.60107 1.87109 1.90186 1.56641C2.20654 1.26172 2.56201 1.02148 2.96826 0.845703C3.37842 0.669922 3.81592 0.582031 4.28076 0.582031C4.74561 0.582031 5.18115 0.669922 5.5874 0.845703C5.99756 1.02148 6.35498 1.26172 6.65967 1.56641C6.96436 1.87109 7.20459 2.22852 7.38037 2.63867C7.55615 3.04492 7.64404 3.48047 7.64404 3.94531V8.98438ZM35.9741 3.10156C35.9741 2.75391 36.0405 2.42773 36.1733 2.12305C36.3062 1.81836 36.4858 1.55273 36.7124 1.32617C36.9429 1.0957 37.2104 0.914063 37.5151 0.78125C37.8198 0.648437 38.146 0.582031 38.4937 0.582031H42.3491V2.26367H38.4937C38.3765 2.26367 38.2671 2.28516 38.1655 2.32812C38.064 2.37109 37.9741 2.43164 37.896 2.50977C37.8218 2.58398 37.7632 2.67188 37.7202 2.77344C37.6772 2.875 37.6558 2.98438 37.6558 3.10156C37.6558 3.21875 37.6772 3.33008 37.7202 3.43555C37.7632 3.53711 37.8218 3.62695 37.896 3.70508C37.9741 3.7793 38.064 3.83789 38.1655 3.88086C38.2671 3.92383 38.3765 3.94531 38.4937 3.94531H40.1753C40.5229 3.94531 40.8491 4.01172 41.1538 4.14453C41.4624 4.27344 41.73 4.45312 41.9565 4.68359C42.187 4.91016 42.3667 5.17773 42.4956 5.48633C42.6284 5.79102 42.6948 6.11719 42.6948 6.46484C42.6948 6.8125 42.6284 7.13867 42.4956 7.44336C42.3667 7.74805 42.187 8.01562 41.9565 8.24609C41.73 8.47266 41.4624 8.65234 41.1538 8.78516C40.8491 8.91797 40.5229 8.98438 40.1753 8.98438H36.4429V7.30273H40.1753C40.2925 7.30273 40.4019 7.28125 40.5034 7.23828C40.605 7.19531 40.6929 7.13672 40.7671 7.0625C40.8452 6.98438 40.9058 6.89453 40.9487 6.79297C40.9917 6.69141 41.0132 6.58203 41.0132 6.46484C41.0132 6.34766 40.9917 6.23828 40.9487 6.13672C40.9058 6.03516 40.8452 5.94727 40.7671 5.87305C40.6929 5.79492 40.605 5.73438 40.5034 5.69141C40.4019 5.64844 40.2925 5.62695 40.1753 5.62695H38.4937C38.146 5.62695 37.8198 5.56055 37.5151 5.42773C37.2104 5.29492 36.9429 5.11523 36.7124 4.88867C36.4858 4.6582 36.3062 4.39062 36.1733 4.08594C36.0405 3.77734 35.9741 3.44922 35.9741 3.10156ZM57.4839 8.98438H55.8022V0.582031H57.4839V3.94531H60.8413V0.582031H62.5229V8.98438H60.8413V5.62695H57.4839V8.98438ZM84.3198 4.81836C84.3198 5.2168 84.2671 5.60156 84.1616 5.97266C84.0601 6.33984 83.9155 6.68555 83.728 7.00977C83.5405 7.33008 83.314 7.62305 83.0483 7.88867C82.7827 8.1543 82.4897 8.38281 82.1694 8.57422C81.8491 8.76172 81.5034 8.90625 81.1323 9.00781C80.7612 9.11328 80.3765 9.16602 79.978 9.16602C79.5796 9.16602 79.1948 9.11328 78.8237 9.00781C78.4565 8.90625 78.1108 8.76172 77.7866 8.57422C77.4663 8.38281 77.1733 8.1543 76.9077 7.88867C76.6421 7.62305 76.4136 7.33008 76.2222 7.00977C76.0347 6.68555 75.8882 6.33984 75.7827 5.97266C75.6812 5.60156 75.6304 5.2168 75.6304 4.81836C75.6304 4.41992 75.6812 4.03516 75.7827 3.66406C75.8882 3.29297 76.0347 2.94727 76.2222 2.62695C76.4136 2.30664 76.6421 2.01367 76.9077 1.74805C77.1733 1.48242 77.4663 1.25586 77.7866 1.06836C78.1108 0.880859 78.4565 0.736328 78.8237 0.634766C79.1948 0.529297 79.5796 0.476562 79.978 0.476562C80.3765 0.476562 80.7612 0.529297 81.1323 0.634766C81.5034 0.736328 81.8491 0.880859 82.1694 1.06836C82.4897 1.25586 82.7827 1.48242 83.0483 1.74805C83.314 2.01367 83.5405 2.30664 83.728 2.62695C83.9155 2.94727 84.0601 3.29297 84.1616 3.66406C84.2671 4.03516 84.3198 4.41992 84.3198 4.81836ZM82.6499 4.81836C82.6499 4.45117 82.5796 4.10547 82.439 3.78125C82.2983 3.45312 82.1069 3.16992 81.8647 2.93164C81.6265 2.68945 81.3433 2.49805 81.0151 2.35742C80.6909 2.2168 80.3452 2.14648 79.978 2.14648C79.6069 2.14648 79.2593 2.2168 78.9351 2.35742C78.6108 2.49805 78.3276 2.68945 78.0854 2.93164C77.8433 3.16992 77.6519 3.45312 77.5112 3.78125C77.3706 4.10547 77.3003 4.45117 77.3003 4.81836C77.3003 5.18555 77.3706 5.53125 77.5112 5.85547C77.6519 6.17578 77.8433 6.45703 78.0854 6.69922C78.3276 6.94141 78.6108 7.13281 78.9351 7.27344C79.2593 7.41406 79.6069 7.48438 79.978 7.48438C80.3452 7.48438 80.6909 7.41406 81.0151 7.27344C81.3433 7.13281 81.6265 6.94141 81.8647 6.69922C82.1069 6.45703 82.2983 6.17578 82.439 5.85547C82.5796 5.53125 82.6499 5.18555 82.6499 4.81836ZM99.1089 2.26367V5.62695H100.791C101.021 5.62695 101.238 5.58398 101.441 5.49805C101.644 5.4082 101.822 5.28711 101.974 5.13477C102.126 4.98242 102.246 4.80469 102.332 4.60156C102.421 4.39453 102.466 4.17578 102.466 3.94531C102.466 3.71484 102.421 3.49805 102.332 3.29492C102.246 3.08789 102.126 2.9082 101.974 2.75586C101.822 2.60352 101.644 2.48438 101.441 2.39844C101.238 2.30859 101.021 2.26367 100.791 2.26367H99.1089ZM99.1089 8.98438H97.4272V0.582031H100.791C101.099 0.582031 101.396 0.623047 101.681 0.705078C101.966 0.783203 102.232 0.896484 102.478 1.04492C102.728 1.18945 102.955 1.36523 103.158 1.57227C103.365 1.77539 103.541 2.00195 103.685 2.25195C103.833 2.50195 103.947 2.76953 104.025 3.05469C104.107 3.33984 104.148 3.63672 104.148 3.94531C104.148 4.23438 104.111 4.51562 104.037 4.78906C103.966 5.0625 103.863 5.32227 103.726 5.56836C103.593 5.81445 103.429 6.04102 103.234 6.24805C103.039 6.45508 102.82 6.63477 102.578 6.78711L103.509 8.98438H101.722L100.99 7.29102L99.1089 7.30273V8.98438ZM120.63 8.98438H118.955V2.26367H116.429V0.582031H123.15V2.26367H120.63V8.98438ZM153.085 8.98438H151.404V0.582031H157.287V2.26367H153.085V3.94531H155.605V5.62695H153.085V8.98438ZM171.835 8.98438H170.154V0.582031H171.835V8.98438ZM191.283 8.98438H185.4V0.582031H187.082V7.30273H191.283V8.98438ZM212.5 8.98438H210.824V2.98438C210.824 2.86719 210.8 2.75781 210.753 2.65625C210.71 2.55469 210.65 2.4668 210.572 2.39258C210.498 2.31445 210.41 2.25391 210.308 2.21094C210.207 2.16797 210.097 2.14648 209.98 2.14648C209.863 2.14648 209.753 2.16797 209.652 2.21094C209.55 2.25391 209.46 2.31445 209.382 2.39258C209.308 2.4668 209.25 2.55469 209.207 2.65625C209.164 2.75781 209.142 2.86719 209.142 2.98438V8.98438H207.46V2.98438C207.46 2.86719 207.439 2.75781 207.396 2.65625C207.353 2.55469 207.292 2.4668 207.214 2.39258C207.14 2.31445 207.052 2.25391 206.951 2.21094C206.849 2.16797 206.74 2.14648 206.623 2.14648C206.505 2.14648 206.396 2.16797 206.294 2.21094C206.193 2.25391 206.103 2.31445 206.025 2.39258C205.951 2.4668 205.892 2.55469 205.849 2.65625C205.806 2.75781 205.785 2.86719 205.785 2.98438V8.98438H204.103V2.98438C204.103 2.63672 204.167 2.31055 204.296 2.00586C204.429 1.69727 204.609 1.42969 204.835 1.20312C205.066 0.972656 205.333 0.792969 205.638 0.664062C205.947 0.53125 206.275 0.464844 206.623 0.464844C206.935 0.464844 207.236 0.521484 207.525 0.634766C207.814 0.744141 208.074 0.904297 208.304 1.11523C208.535 0.904297 208.792 0.744141 209.078 0.634766C209.367 0.521484 209.667 0.464844 209.98 0.464844C210.328 0.464844 210.654 0.53125 210.958 0.664062C211.267 0.792969 211.535 0.972656 211.761 1.20312C211.992 1.42969 212.171 1.69727 212.3 2.00586C212.433 2.31055 212.5 2.63672 212.5 2.98438V8.98438ZM248.089 6.46484C248.089 6.8125 248.023 7.13867 247.89 7.44336C247.757 7.74805 247.576 8.01562 247.345 8.24609C247.119 8.47266 246.853 8.65234 246.548 8.78516C246.244 8.91797 245.917 8.98438 245.57 8.98438H241.369V0.582031H245.57C245.917 0.582031 246.244 0.648437 246.548 0.78125C246.853 0.914063 247.119 1.0957 247.345 1.32617C247.576 1.55273 247.757 1.81836 247.89 2.12305C248.023 2.42773 248.089 2.75391 248.089 3.10156C248.089 3.25781 248.068 3.41797 248.025 3.58203C247.982 3.74609 247.921 3.9043 247.843 4.05664C247.765 4.20898 247.671 4.34766 247.562 4.47266C247.453 4.59766 247.332 4.70117 247.199 4.7832C247.335 4.85742 247.458 4.95898 247.568 5.08789C247.677 5.21289 247.771 5.35156 247.849 5.50391C247.927 5.65625 247.986 5.81641 248.025 5.98438C248.068 6.14844 248.089 6.30859 248.089 6.46484ZM243.05 7.30273H245.57C245.687 7.30273 245.796 7.28125 245.898 7.23828C246 7.19531 246.087 7.13672 246.162 7.0625C246.24 6.98438 246.3 6.89453 246.343 6.79297C246.386 6.69141 246.408 6.58203 246.408 6.46484C246.408 6.34766 246.386 6.23828 246.343 6.13672C246.3 6.03516 246.24 5.94727 246.162 5.87305C246.087 5.79492 246 5.73438 245.898 5.69141C245.796 5.64844 245.687 5.62695 245.57 5.62695H243.05V7.30273ZM243.05 3.94531H245.57C245.687 3.94531 245.796 3.92383 245.898 3.88086C246 3.83789 246.087 3.7793 246.162 3.70508C246.24 3.62695 246.3 3.53711 246.343 3.43555C246.386 3.33008 246.408 3.21875 246.408 3.10156C246.408 2.98438 246.386 2.875 246.343 2.77344C246.3 2.67188 246.24 2.58398 246.162 2.50977C246.087 2.43164 246 2.37109 245.898 2.32812C245.796 2.28516 245.687 2.26367 245.57 2.26367H243.05V3.94531ZM265.14 8.98438H263.464V6.35352C263.093 6.25977 262.751 6.10938 262.439 5.90234C262.13 5.69531 261.865 5.44922 261.642 5.16406C261.419 4.875 261.246 4.55664 261.121 4.20898C261 3.85742 260.939 3.48828 260.939 3.10156V0.582031H262.621V3.10156C262.621 3.33203 262.664 3.55078 262.75 3.75781C262.839 3.96094 262.96 4.13867 263.113 4.29102C263.265 4.44336 263.443 4.56445 263.646 4.6543C263.853 4.74023 264.072 4.7832 264.302 4.7832C264.533 4.7832 264.75 4.74023 264.953 4.6543C265.16 4.56445 265.339 4.44336 265.492 4.29102C265.644 4.13867 265.763 3.96094 265.849 3.75781C265.939 3.55078 265.984 3.33203 265.984 3.10156V0.582031H267.66V3.10156C267.66 3.48828 267.597 3.85742 267.472 4.20898C267.351 4.55664 267.179 4.875 266.957 5.16406C266.734 5.44922 266.468 5.69531 266.16 5.90234C265.851 6.10938 265.511 6.25977 265.14 6.35352V8.98438ZM301.111 5.62695V3.94531C301.111 3.71484 301.066 3.49805 300.976 3.29492C300.89 3.08789 300.771 2.9082 300.619 2.75586C300.466 2.60352 300.287 2.48438 300.08 2.39844C299.876 2.30859 299.66 2.26367 299.429 2.26367C299.199 2.26367 298.98 2.30859 298.773 2.39844C298.57 2.48438 298.392 2.60352 298.24 2.75586C298.087 2.9082 297.966 3.08789 297.876 3.29492C297.791 3.49805 297.748 3.71484 297.748 3.94531V5.62695H301.111ZM302.792 8.98438H301.111V7.30273H297.748V8.98438H296.072V3.94531C296.072 3.48047 296.16 3.04492 296.335 2.63867C296.511 2.22852 296.75 1.87109 297.05 1.56641C297.355 1.26172 297.71 1.02148 298.117 0.845703C298.527 0.669922 298.964 0.582031 299.429 0.582031C299.894 0.582031 300.33 0.669922 300.736 0.845703C301.146 1.02148 301.503 1.26172 301.808 1.56641C302.113 1.87109 302.353 2.22852 302.529 2.63867C302.705 3.04492 302.792 3.48047 302.792 3.94531V8.98438ZM322.134 8.98438H316.251V0.582031H317.933V7.30273H322.134V8.98438ZM340.773 8.98438H335.013V0.582031H340.773V2.26367H336.695V3.94531H339.455V5.62695H336.695V7.30273H340.773V8.98438ZM360.478 8.98438H358.439L356.822 6.27148L355.199 8.98438H353.171L355.75 4.7832L353.171 0.582031H355.199L356.822 3.29492L358.439 0.582031H360.478L357.9 4.7832L360.478 8.98438ZM378.208 5.62695V3.94531C378.208 3.71484 378.164 3.49805 378.074 3.29492C377.988 3.08789 377.869 2.9082 377.716 2.75586C377.564 2.60352 377.384 2.48438 377.177 2.39844C376.974 2.30859 376.757 2.26367 376.527 2.26367C376.296 2.26367 376.078 2.30859 375.871 2.39844C375.667 2.48438 375.49 2.60352 375.337 2.75586C375.185 2.9082 375.064 3.08789 374.974 3.29492C374.888 3.49805 374.845 3.71484 374.845 3.94531V5.62695H378.208ZM379.89 8.98438H378.208V7.30273H374.845V8.98438H373.169V3.94531C373.169 3.48047 373.257 3.04492 373.433 2.63867C373.609 2.22852 373.847 1.87109 374.148 1.56641C374.453 1.26172 374.808 1.02148 375.214 0.845703C375.625 0.669922 376.062 0.582031 376.527 0.582031C376.992 0.582031 377.427 0.669922 377.833 0.845703C378.244 1.02148 378.601 1.26172 378.906 1.56641C379.21 1.87109 379.451 2.22852 379.626 2.63867C379.802 3.04492 379.89 3.48047 379.89 3.94531V8.98438ZM400.07 8.98438H398.271L395.031 3.45312V8.98438H393.349V0.582031H395.148L398.388 6.11914V0.582031H400.07V8.98438ZM420.367 4.7832C420.367 5.16992 420.316 5.54297 420.214 5.90234C420.117 6.25781 419.976 6.5918 419.792 6.9043C419.609 7.21289 419.39 7.49609 419.136 7.75391C418.882 8.00781 418.599 8.22656 418.287 8.41016C417.974 8.59375 417.638 8.73633 417.279 8.83789C416.923 8.93555 416.552 8.98438 416.166 8.98438H413.634V0.582031H416.166C416.552 0.582031 416.923 0.632813 417.279 0.734375C417.638 0.832031 417.974 0.972656 418.287 1.15625C418.599 1.33984 418.882 1.56055 419.136 1.81836C419.39 2.07227 419.609 2.35547 419.792 2.66797C419.976 2.97656 420.117 3.31055 420.214 3.66992C420.316 4.02539 420.367 4.39648 420.367 4.7832ZM418.685 4.7832C418.685 4.43555 418.619 4.10938 418.486 3.80469C418.357 3.5 418.177 3.23438 417.947 3.00781C417.72 2.77734 417.453 2.5957 417.144 2.46289C416.839 2.33008 416.513 2.26367 416.166 2.26367H415.328V7.30273H416.166C416.513 7.30273 416.839 7.23828 417.144 7.10938C417.453 6.97656 417.72 6.79688 417.947 6.57031C418.177 6.33984 418.357 6.07227 418.486 5.76758C418.619 5.45898 418.685 5.13086 418.685 4.7832ZM435.167 2.26367V5.62695H436.849C437.08 5.62695 437.296 5.58398 437.5 5.49805C437.703 5.4082 437.88 5.28711 438.033 5.13477C438.185 4.98242 438.304 4.80469 438.39 4.60156C438.48 4.39453 438.525 4.17578 438.525 3.94531C438.525 3.71484 438.48 3.49805 438.39 3.29492C438.304 3.08789 438.185 2.9082 438.033 2.75586C437.88 2.60352 437.703 2.48438 437.5 2.39844C437.296 2.30859 437.08 2.26367 436.849 2.26367H435.167ZM435.167 8.98438H433.486V0.582031H436.849C437.158 0.582031 437.455 0.623047 437.74 0.705078C438.025 0.783203 438.291 0.896484 438.537 1.04492C438.787 1.18945 439.013 1.36523 439.216 1.57227C439.423 1.77539 439.599 2.00195 439.744 2.25195C439.892 2.50195 440.005 2.76953 440.083 3.05469C440.166 3.33984 440.207 3.63672 440.207 3.94531C440.207 4.23438 440.169 4.51562 440.095 4.78906C440.025 5.0625 439.921 5.32227 439.785 5.56836C439.652 5.81445 439.488 6.04102 439.292 6.24805C439.097 6.45508 438.878 6.63477 438.636 6.78711L439.568 8.98438H437.781L437.048 7.29102L435.167 7.30273V8.98438ZM475.398 6.46484C475.398 6.8125 475.332 7.13867 475.199 7.44336C475.066 7.74805 474.884 8.01562 474.654 8.24609C474.427 8.47266 474.162 8.65234 473.857 8.78516C473.552 8.91797 473.226 8.98438 472.878 8.98438H468.677V0.582031H472.878C473.226 0.582031 473.552 0.648437 473.857 0.78125C474.162 0.914063 474.427 1.0957 474.654 1.32617C474.884 1.55273 475.066 1.81836 475.199 2.12305C475.332 2.42773 475.398 2.75391 475.398 3.10156C475.398 3.25781 475.376 3.41797 475.333 3.58203C475.291 3.74609 475.23 3.9043 475.152 4.05664C475.074 4.20898 474.98 4.34766 474.871 4.47266C474.761 4.59766 474.64 4.70117 474.507 4.7832C474.644 4.85742 474.767 4.95898 474.876 5.08789C474.986 5.21289 475.08 5.35156 475.158 5.50391C475.236 5.65625 475.294 5.81641 475.333 5.98438C475.376 6.14844 475.398 6.30859 475.398 6.46484ZM470.359 7.30273H472.878C472.996 7.30273 473.105 7.28125 473.207 7.23828C473.308 7.19531 473.396 7.13672 473.47 7.0625C473.548 6.98438 473.609 6.89453 473.652 6.79297C473.695 6.69141 473.716 6.58203 473.716 6.46484C473.716 6.34766 473.695 6.23828 473.652 6.13672C473.609 6.03516 473.548 5.94727 473.47 5.87305C473.396 5.79492 473.308 5.73438 473.207 5.69141C473.105 5.64844 472.996 5.62695 472.878 5.62695H470.359V7.30273ZM470.359 3.94531H472.878C472.996 3.94531 473.105 3.92383 473.207 3.88086C473.308 3.83789 473.396 3.7793 473.47 3.70508C473.548 3.62695 473.609 3.53711 473.652 3.43555C473.695 3.33008 473.716 3.21875 473.716 3.10156C473.716 2.98438 473.695 2.875 473.652 2.77344C473.609 2.67188 473.548 2.58398 473.47 2.50977C473.396 2.43164 473.308 2.37109 473.207 2.32812C473.105 2.28516 472.996 2.26367 472.878 2.26367H470.359V3.94531ZM496.902 4.81836C496.902 5.2168 496.849 5.60156 496.744 5.97266C496.642 6.33984 496.498 6.68555 496.31 7.00977C496.123 7.33008 495.896 7.62305 495.63 7.88867C495.365 8.1543 495.072 8.38281 494.751 8.57422C494.431 8.76172 494.085 8.90625 493.714 9.00781C493.343 9.11328 492.958 9.16602 492.56 9.16602C492.162 9.16602 491.777 9.11328 491.406 9.00781C491.039 8.90625 490.693 8.76172 490.369 8.57422C490.048 8.38281 489.755 8.1543 489.49 7.88867C489.224 7.62305 488.996 7.33008 488.804 7.00977C488.617 6.68555 488.47 6.33984 488.365 5.97266C488.263 5.60156 488.212 5.2168 488.212 4.81836C488.212 4.41992 488.263 4.03516 488.365 3.66406C488.47 3.29297 488.617 2.94727 488.804 2.62695C488.996 2.30664 489.224 2.01367 489.49 1.74805C489.755 1.48242 490.048 1.25586 490.369 1.06836C490.693 0.880859 491.039 0.736328 491.406 0.634766C491.777 0.529297 492.162 0.476562 492.56 0.476562C492.958 0.476562 493.343 0.529297 493.714 0.634766C494.085 0.736328 494.431 0.880859 494.751 1.06836C495.072 1.25586 495.365 1.48242 495.63 1.74805C495.896 2.01367 496.123 2.30664 496.31 2.62695C496.498 2.94727 496.642 3.29297 496.744 3.66406C496.849 4.03516 496.902 4.41992 496.902 4.81836ZM495.232 4.81836C495.232 4.45117 495.162 4.10547 495.021 3.78125C494.88 3.45312 494.689 3.16992 494.447 2.93164C494.208 2.68945 493.925 2.49805 493.597 2.35742C493.273 2.2168 492.927 2.14648 492.56 2.14648C492.189 2.14648 491.841 2.2168 491.517 2.35742C491.193 2.49805 490.91 2.68945 490.667 2.93164C490.425 3.16992 490.234 3.45312 490.093 3.78125C489.953 4.10547 489.882 4.45117 489.882 4.81836C489.882 5.18555 489.953 5.53125 490.093 5.85547C490.234 6.17578 490.425 6.45703 490.667 6.69922C490.91 6.94141 491.193 7.13281 491.517 7.27344C491.841 7.41406 492.189 7.48438 492.56 7.48438C492.927 7.48438 493.273 7.41406 493.597 7.27344C493.925 7.13281 494.208 6.94141 494.447 6.69922C494.689 6.45703 494.88 6.17578 495.021 5.85547C495.162 5.53125 495.232 5.18555 495.232 4.81836ZM511.691 2.26367V5.62695H513.373C513.603 5.62695 513.82 5.58398 514.023 5.49805C514.226 5.4082 514.404 5.28711 514.556 5.13477C514.708 4.98242 514.828 4.80469 514.914 4.60156C515.003 4.39453 515.048 4.17578 515.048 3.94531C515.048 3.71484 515.003 3.49805 514.914 3.29492C514.828 3.08789 514.708 2.9082 514.556 2.75586C514.404 2.60352 514.226 2.48438 514.023 2.39844C513.82 2.30859 513.603 2.26367 513.373 2.26367H511.691ZM511.691 8.98438H510.009V0.582031H513.373C513.681 0.582031 513.978 0.623047 514.263 0.705078C514.548 0.783203 514.814 0.896484 515.06 1.04492C515.31 1.18945 515.537 1.36523 515.74 1.57227C515.947 1.77539 516.123 2.00195 516.267 2.25195C516.416 2.50195 516.529 2.76953 516.607 3.05469C516.689 3.33984 516.73 3.63672 516.73 3.94531C516.73 4.23438 516.693 4.51562 516.619 4.78906C516.548 5.0625 516.445 5.32227 516.308 5.56836C516.175 5.81445 516.011 6.04102 515.816 6.24805C515.621 6.45508 515.402 6.63477 515.16 6.78711L516.091 8.98438H514.304L513.572 7.29102L511.691 7.30273V8.98438ZM535.597 8.98438H529.837V0.582031H535.597V2.26367H531.519V3.94531H534.279V5.62695H531.519V7.30273H535.597V8.98438ZM555.273 8.12305C554.882 8.45898 554.445 8.7168 553.96 8.89648C553.476 9.07617 552.974 9.16602 552.455 9.16602C552.056 9.16602 551.671 9.11328 551.3 9.00781C550.933 8.90625 550.587 8.76172 550.263 8.57422C549.943 8.38281 549.65 8.1543 549.384 7.88867C549.119 7.62305 548.89 7.33008 548.699 7.00977C548.511 6.68555 548.365 6.33984 548.259 5.97266C548.158 5.60156 548.107 5.2168 548.107 4.81836C548.107 4.41992 548.158 4.03516 548.259 3.66406C548.365 3.29297 548.511 2.94727 548.699 2.62695C548.89 2.30273 549.119 2.00781 549.384 1.74219C549.65 1.47656 549.943 1.25 550.263 1.0625C550.587 0.871094 550.933 0.724609 551.3 0.623047C551.671 0.517578 552.056 0.464844 552.455 0.464844C552.974 0.464844 553.476 0.554687 553.96 0.734375C554.445 0.910156 554.882 1.16797 555.273 1.50781L554.382 2.97266C554.136 2.70703 553.845 2.50391 553.509 2.36328C553.173 2.21875 552.822 2.14648 552.455 2.14648C552.083 2.14648 551.736 2.2168 551.412 2.35742C551.087 2.49805 550.804 2.68945 550.562 2.93164C550.32 3.16992 550.128 3.45312 549.988 3.78125C549.847 4.10547 549.777 4.45117 549.777 4.81836C549.777 5.18555 549.847 5.53125 549.988 5.85547C550.128 6.17578 550.32 6.45703 550.562 6.69922C550.804 6.94141 551.087 7.13281 551.412 7.27344C551.736 7.41406 552.083 7.48438 552.455 7.48438C552.822 7.48438 553.173 7.41406 553.509 7.27344C553.845 7.12891 554.136 6.92383 554.382 6.6582L555.273 8.12305ZM569.933 8.98438H568.251V0.582031H569.933V4.7832L573.062 0.582031H574.972L572.318 4.12695L574.972 8.98438H573.062L571.216 5.58594L569.933 7.30273V8.98438ZM591.531 8.98438H589.855V6.35352C589.484 6.25977 589.142 6.10938 588.83 5.90234C588.521 5.69531 588.255 5.44922 588.033 5.16406C587.81 4.875 587.636 4.55664 587.511 4.20898C587.39 3.85742 587.33 3.48828 587.33 3.10156V0.582031H589.011V3.10156C589.011 3.33203 589.054 3.55078 589.14 3.75781C589.23 3.96094 589.351 4.13867 589.503 4.29102C589.656 4.44336 589.833 4.56445 590.037 4.6543C590.244 4.74023 590.462 4.7832 590.693 4.7832C590.923 4.7832 591.14 4.74023 591.343 4.6543C591.55 4.56445 591.73 4.44336 591.882 4.29102C592.035 4.13867 592.154 3.96094 592.24 3.75781C592.33 3.55078 592.375 3.33203 592.375 3.10156V0.582031H594.05V3.10156C594.05 3.48828 593.988 3.85742 593.863 4.20898C593.742 4.55664 593.57 4.875 593.347 5.16406C593.125 5.44922 592.859 5.69531 592.55 5.90234C592.242 6.10938 591.902 6.25977 591.531 6.35352V8.98438Z" fill="url(#paint0_linear_4_27)"/>
<defs>
<linearGradient id="paint0_linear_4_27" x1="295.754" y1="12.1587" x2="295.754" y2="-3.01562" gradientUnits="userSpaceOnUse">
<stop stop-color="white" stop-opacity="0.16"/>
<stop offset="1" stop-color="white"/>
</linearGradient>
</defs>
</svg>
