<svg width="160" height="200" viewBox="0 0 160 200" fill="none" xmlns="http://www.w3.org/2000/svg">
<path d="M100 200H60.1116V137.378C51.2785 135.146 43.1427 131.567 35.7043 126.639C28.3589 121.711 22.0363 115.853 16.7364 109.066C11.4365 102.185 7.29893 94.6072 4.32357 86.3319C1.44119 77.9637 0 69.1771 0 59.9721V0H40.0279V59.9721C40.0279 65.4579 41.0507 70.6648 43.0962 75.5928C45.2348 80.4277 48.1172 84.6583 51.7434 88.2845C55.3696 91.9107 59.6002 94.7931 64.4352 96.9317C69.3631 98.9772 74.57 100 80.0558 100C85.5416 100 90.702 98.9772 95.537 96.9317C100.465 94.7931 104.742 91.9107 108.368 88.2845C111.994 84.6583 114.83 80.4277 116.876 75.5928C119.014 70.6648 120.084 65.4579 120.084 59.9721V0H159.972V59.9721C159.972 69.1771 158.484 77.9637 155.509 86.3319C152.627 94.6072 148.536 102.185 143.236 109.066C137.936 115.853 131.613 121.711 124.268 126.639C116.922 131.567 108.833 135.146 100 137.378V200Z" fill="url(#paint0_linear_4_87)"/>
<defs>
<linearGradient id="paint0_linear_4_87" x1="-0.304663" y1="96.4575" x2="160.289" y2="96.4575" gradientUnits="userSpaceOnUse">
<stop stop-color="#F8AE78" stop-opacity="0.16"/>
<stop offset="1" stop-color="#FBAF78"/>
</linearGradient>
</defs>
</svg>
